<svg width="155" height="174" viewBox="0 0 155 174" xmlns="http://www.w3.org/2000/svg">
<path d="M9.50716 17.5013C25.5079 2.50127 50.2623 1.00127 77.6384 1.00127C105.014 1.00127 123.582 -0.300842 143.507 16.0009C154.507 25.0005 154.464 36 154.507 39.5013C154.551 43.0025 154.507 95.0011 154.507 139.001C154.507 145 150.168 151.777 145.77 157.001C136.508 168.002 120.769 174.001 77.6384 174.001C34.5079 174.001 23.0079 169.002 9.50716 157.001C6.8918 154.676 0.00730814 146.95 0.00740227 139.001C0.00784048 102.001 -0.00946982 45.5025 0.00740227 39.5013C0.0242744 33.5 1.98737 24.5507 9.50716 17.5013Z" fill="white"/>
</svg>
