<svg width="176" height="196" viewBox="0 0 176 196" fill="none" xmlns="http://www.w3.org/2000/svg">
<path d="M11.5458 18.7024C29.6571 1.72386 57.6766 0.0260118 88.6635 0.0260118C119.65 0.0260118 140.667 -1.44785 163.221 17.0041C175.672 27.1907 175.622 39.6411 175.672 43.6042C175.721 47.5672 175.671 106.424 175.672 156.228C175.672 163.018 170.759 170.689 165.781 176.602C155.298 189.054 137.483 195.845 88.6635 195.845C39.8442 195.845 26.8273 190.186 11.5458 176.602C8.5855 173.971 0.79294 165.225 0.793047 156.228C0.793543 114.348 0.773949 50.397 0.793047 43.6042C0.812144 36.8113 3.03418 26.6817 11.5458 18.7024Z" fill="#031025"/>
<path d="M13.4579 20.1772C31.0587 3.67718 58.2886 2.02718 88.4022 2.02718C118.516 2.02718 138.94 0.594855 160.858 18.5268C172.958 28.4263 172.91 40.5258 172.958 44.3772C173.006 48.2286 172.958 105.427 172.958 153.827C172.958 160.426 168.184 167.881 163.347 173.627C153.159 185.728 135.846 192.327 88.4022 192.327C40.9587 192.327 28.3087 186.828 13.4579 173.627C10.581 171.07 3.00804 162.57 3.00814 153.827C3.00862 113.127 2.98958 50.9786 3.00814 44.3772C3.0267 37.7758 5.18611 27.9316 13.4579 20.1772Z" fill="#0A2041"/>
<path d="M18.9375 26.6383C35.2393 11.3561 60.4594 9.82791 88.3505 9.82791C116.242 9.82791 135.158 8.5013 155.459 25.1098C166.666 34.2786 166.621 45.4851 166.666 49.0522C166.71 52.6194 166.666 105.596 166.666 150.424C166.666 156.536 162.244 163.441 157.764 168.763C148.328 179.971 132.292 186.083 88.3505 186.083C44.4086 186.083 32.6922 180.99 18.9375 168.763C16.2729 166.394 9.25891 158.522 9.25901 150.424C9.25945 112.728 9.24182 55.1664 9.25901 49.0522C9.2762 42.9381 11.2762 33.8204 18.9375 26.6383Z" fill="#1C5681"/>
</svg>
