<svg width="62" height="60" viewBox="0 0 62 60" fill="none" xmlns="http://www.w3.org/2000/svg">
<path fill-rule="evenodd" clip-rule="evenodd" d="M62 30C62 46.5684 48.1207 60 31 60C13.8792 60 0 46.5684 0 30C0 13.4314 13.8792 0 31 0C48.1207 0 62 13.4314 62 30ZM43.4939 20.909C44.4019 21.7877 44.4019 23.2123 43.4939 24.0909L27.9939 39.0909C27.0859 39.9696 25.6141 39.9696 24.706 39.0909L18.506 33.0909C17.598 32.2122 17.598 30.7878 18.506 29.9091C19.4139 29.0304 20.8861 29.0304 21.794 29.9091L26.35 34.3179L33.2779 27.6135L40.2061 20.909C41.1141 20.0303 42.5859 20.0303 43.4939 20.909Z" fill="#907AD6"/>
</svg>
