<svg width="322" height="40" viewBox="0 0 322 40" fill="none" xmlns="http://www.w3.org/2000/svg">
<rect width="293.047" height="8" transform="translate(9.65088 18)" fill="white"/>
<ellipse cx="11.8447" cy="24" rx="11.8447" ry="11" fill="white"/>
<ellipse cx="47.8178" cy="24" rx="11.8447" ry="11" fill="white"/>
<ellipse cx="83.791" cy="24" rx="11.8447" ry="11" fill="white"/>
<ellipse cx="120.64" cy="24" rx="11.8447" ry="11" fill="white"/>
<ellipse cx="155.736" cy="24" rx="11.8447" ry="11" fill="white"/>
<ellipse cx="185.567" cy="24" rx="11.8447" ry="11" fill="white"/>
<ellipse cx="221.54" cy="24" rx="11.8447" ry="11" fill="white"/>
<ellipse cx="256.636" cy="24" rx="11.8447" ry="11" fill="white"/>
<ellipse cx="286.466" cy="24" rx="11.8447" ry="11" fill="white"/>
<ellipse cx="24.1279" cy="11" rx="11.8447" ry="11" fill="white"/>
<ellipse cx="60.1011" cy="11" rx="11.8447" ry="11" fill="white"/>
<ellipse cx="96.0742" cy="11" rx="11.8447" ry="11" fill="white"/>
<ellipse cx="132.923" cy="11" rx="11.8447" ry="11" fill="white"/>
<ellipse cx="180.303" cy="13" rx="11.8447" ry="11" fill="white"/>
<ellipse cx="203.115" cy="11" rx="11.8447" ry="11" fill="white"/>
<ellipse cx="239.088" cy="11" rx="11.8447" ry="11" fill="white"/>
<ellipse cx="268.918" cy="11" rx="11.8447" ry="11" fill="white"/>
<ellipse cx="298.749" cy="11" rx="11.8447" ry="11" fill="white"/>
<ellipse cx="24.1279" cy="24" rx="11.8447" ry="11" fill="white"/>
<ellipse cx="66.2431" cy="29" rx="11.8447" ry="11" fill="white"/>
<ellipse cx="96.0742" cy="24" rx="11.8447" ry="11" fill="white"/>
<ellipse cx="132.923" cy="24" rx="11.8447" ry="11" fill="white"/>
<ellipse cx="168.019" cy="24" rx="11.8447" ry="11" fill="white"/>
<ellipse cx="203.115" cy="24" rx="11.8447" ry="11" fill="white"/>
<ellipse cx="239.088" cy="24" rx="11.8447" ry="11" fill="white"/>
<ellipse cx="268.918" cy="24" rx="11.8447" ry="11" fill="white"/>
<ellipse cx="298.749" cy="24" rx="11.8447" ry="11" fill="white"/>
<ellipse cx="41.6758" cy="13" rx="11.8447" ry="11" fill="white"/>
<ellipse cx="77.6489" cy="15" rx="11.8447" ry="11" fill="white"/>
<ellipse cx="114.499" cy="15" rx="11.8447" ry="11" fill="white"/>
<ellipse cx="144.33" cy="18" rx="11.8447" ry="11" fill="white"/>
<ellipse cx="159.246" cy="14" rx="11.8447" ry="11" fill="white"/>
<ellipse cx="219.785" cy="18" rx="11.8447" ry="11" fill="white"/>
<ellipse cx="250.493" cy="18" rx="11.8447" ry="11" fill="white"/>
<ellipse cx="280.324" cy="14" rx="11.8447" ry="11" fill="white"/>
<ellipse cx="310.155" cy="18" rx="11.8447" ry="11" fill="white"/>
</svg>
