<svg width="667" height="931" viewBox="0 0 667 931" fill="none" xmlns="http://www.w3.org/2000/svg">
<path d="M16.71 0.5C16.5737 1.13671 16.5 1.80421 16.5 2.5C16.5 8.57513 16.5 14.5 26.5 14.5C36.5 14.5 35.5 8.57513 35.5 2.5C35.5 1.80408 35.4373 1.13682 35.3242 0.5H44.71C44.5737 1.13671 44.5 1.80421 44.5 2.5C44.5 8.57513 44.5 14.5 54.5 14.5C64.5 14.5 63.5 8.57513 63.5 2.5C63.5 1.80408 63.4373 1.13682 63.3242 0.5H72.71C72.5737 1.13671 72.5 1.80421 72.5 2.5C72.5 8.57513 72.5 14.5 82.5 14.5C92.5 14.5 91.5 8.57513 91.5 2.5C91.5 1.80408 91.4373 1.13682 91.3242 0.5H98.71C98.5737 1.13671 98.5 1.80421 98.5 2.5C98.5 8.57513 98.5 14.5 108.5 14.5C118.5 14.5 117.5 8.57513 117.5 2.5C117.5 1.80408 117.437 1.13682 117.324 0.5H126.71C126.574 1.13671 126.5 1.80421 126.5 2.5C126.5 8.57513 126.5 14.5 136.5 14.5C146.5 14.5 145.5 8.57513 145.5 2.5C145.5 1.80408 145.437 1.13682 145.324 0.5H152.71C152.574 1.13671 152.5 1.80421 152.5 2.5C152.5 8.57513 152.5 14.5 162.5 14.5C172.5 14.5 171.5 8.57513 171.5 2.5C171.5 1.80408 171.437 1.13682 171.324 0.5H180.71C180.574 1.13671 180.5 1.80421 180.5 2.5C180.5 8.57513 180.5 14.5 190.5 14.5C200.5 14.5 199.5 8.57513 199.5 2.5C199.5 1.80408 199.437 1.13682 199.324 0.5H206.71C206.574 1.13671 206.5 1.80421 206.5 2.5C206.5 8.57513 206.5 14.5 216.5 14.5C226.5 14.5 225.5 8.57513 225.5 2.5C225.5 1.80408 225.437 1.13682 225.324 0.5H232.71C232.574 1.13671 232.5 1.80421 232.5 2.5C232.5 8.57513 232.5 14.5 242.5 14.5C252.5 14.5 251.5 8.57513 251.5 2.5C251.5 1.80408 251.437 1.13682 251.324 0.5H260.71C260.574 1.13671 260.5 1.80421 260.5 2.5C260.5 8.57513 260.5 14.5 270.5 14.5C280.5 14.5 279.5 8.57513 279.5 2.5C279.5 1.80408 279.437 1.13682 279.324 0.5H288.71C288.574 1.13671 288.5 1.80421 288.5 2.5C288.5 8.57513 288.5 14.5 298.5 14.5C308.5 14.5 307.5 8.57513 307.5 2.5C307.5 1.80408 307.437 1.13682 307.324 0.5H314.71C314.574 1.13671 314.5 1.80421 314.5 2.5C314.5 8.57513 314.5 14.5 324.5 14.5C334.5 14.5 333.5 8.57513 333.5 2.5C333.5 1.80408 333.437 1.13682 333.324 0.5H342.71C342.574 1.13671 342.5 1.80421 342.5 2.5C342.5 8.57513 342.5 14.5 352.5 14.5C362.5 14.5 361.5 8.57513 361.5 2.5C361.5 1.80408 361.437 1.13682 361.324 0.5H368.71C368.574 1.13671 368.5 1.80421 368.5 2.5C368.5 8.57513 368.5 14.5 378.5 14.5C388.5 14.5 387.5 8.57513 387.5 2.5C387.5 1.80408 387.437 1.13682 387.324 0.5H396.71C396.574 1.13671 396.5 1.80421 396.5 2.5C396.5 8.57513 396.5 14.5 406.5 14.5C416.5 14.5 415.5 8.57513 415.5 2.5C415.5 1.80408 415.437 1.13682 415.324 0.5H422.71C422.574 1.13671 422.5 1.80421 422.5 2.5C422.5 8.57513 422.5 14.5 432.5 14.5C442.5 14.5 441.5 8.57513 441.5 2.5C441.5 1.80408 441.437 1.13682 441.324 0.5H454.71C454.574 1.13671 454.5 1.80421 454.5 2.5C454.5 8.57513 454.5 14.5 464.5 14.5C474.5 14.5 473.5 8.57513 473.5 2.5C473.5 1.80408 473.437 1.13682 473.324 0.5H484.71C484.574 1.13671 484.5 1.80421 484.5 2.5C484.5 8.57513 484.5 14.5 494.5 14.5C504.5 14.5 503.5 8.57513 503.5 2.5C503.5 1.80408 503.437 1.13682 503.324 0.5H514.71C514.574 1.13671 514.5 1.80421 514.5 2.5C514.5 8.57513 514.5 14.5 524.5 14.5C534.5 14.5 533.5 8.57513 533.5 2.5C533.5 1.80408 533.437 1.13682 533.324 0.5H542.71C542.574 1.13671 542.5 1.80421 542.5 2.5C542.5 8.57513 542.5 14.5 552.5 14.5C562.5 14.5 561.5 8.57513 561.5 2.5C561.5 1.80408 561.437 1.13682 561.324 0.5H570.71C570.574 1.13671 570.5 1.80421 570.5 2.5C570.5 8.57513 570.5 14.5 580.5 14.5C590.5 14.5 589.5 8.57513 589.5 2.5C589.5 1.80408 589.437 1.13682 589.324 0.5H598.71C598.574 1.13671 598.5 1.80421 598.5 2.5C598.5 8.57513 598.5 14.5 608.5 14.5C618.5 14.5 617.5 8.57513 617.5 2.5C617.5 1.80408 617.437 1.13682 617.324 0.5H628.71C628.574 1.13671 628.5 1.80421 628.5 2.5C628.5 8.57513 628.5 14.5 638.5 14.5C648.5 14.5 647.5 8.57513 647.5 2.5C647.5 1.80408 647.437 1.13682 647.324 0.5H666.5V930.5H645.515C645.549 929.218 645.5 927.863 645.5 926.5C645.5 920.425 640.918 916.5 636.5 916.5C632.082 916.5 626.5 920.425 626.5 926.5C626.5 927.863 626.5 929.218 626.613 930.5H615.515C615.549 929.218 615.5 927.863 615.5 926.5C615.5 920.425 610.918 916.5 606.5 916.5C602.082 916.5 596.5 920.425 596.5 926.5C596.5 927.863 596.5 929.218 596.613 930.5H587.515C587.549 929.218 587.5 927.863 587.5 926.5C587.5 920.425 582.918 916.5 578.5 916.5C574.082 916.5 568.5 920.425 568.5 926.5C568.5 927.863 568.5 929.218 568.613 930.5H559.515C559.549 929.218 559.5 927.863 559.5 926.5C559.5 920.425 554.918 916.5 550.5 916.5C546.082 916.5 540.5 920.425 540.5 926.5C540.5 927.863 540.5 929.218 540.613 930.5H531.515C531.549 929.218 531.5 927.863 531.5 926.5C531.5 920.425 526.918 916.5 522.5 916.5C518.082 916.5 512.5 920.425 512.5 926.5C512.5 927.863 512.5 929.218 512.613 930.5H501.515C501.549 929.218 501.5 927.863 501.5 926.5C501.5 920.425 496.918 916.5 492.5 916.5C488.082 916.5 482.5 920.425 482.5 926.5C482.5 927.863 482.5 929.218 482.613 930.5H471.515C471.549 929.218 471.5 927.863 471.5 926.5C471.5 920.425 466.918 916.5 462.5 916.5C458.082 916.5 452.5 920.425 452.5 926.5C452.5 927.863 452.5 929.218 452.613 930.5H439.515C439.549 929.218 439.5 927.863 439.5 926.5C439.5 920.425 434.918 916.5 430.5 916.5C426.082 916.5 420.5 920.425 420.5 926.5C420.5 927.863 420.5 929.218 420.613 930.5H413.515C413.549 929.218 413.5 927.863 413.5 926.5C413.5 920.425 408.918 916.5 404.5 916.5C400.082 916.5 394.5 920.425 394.5 926.5C394.5 927.863 394.5 929.218 394.613 930.5H385.515C385.549 929.218 385.5 927.863 385.5 926.5C385.5 920.425 380.918 916.5 376.5 916.5C372.082 916.5 366.5 920.425 366.5 926.5C366.5 927.863 366.5 929.218 366.613 930.5H359.515C359.549 929.218 359.5 927.863 359.5 926.5C359.5 920.425 354.918 916.5 350.5 916.5C346.082 916.5 340.5 920.425 340.5 926.5C340.5 927.863 340.5 929.218 340.613 930.5H331.515C331.549 929.218 331.5 927.863 331.5 926.5C331.5 920.425 326.918 916.5 322.5 916.5C318.082 916.5 312.5 920.425 312.5 926.5C312.5 927.863 312.5 929.218 312.613 930.5H305.515C305.549 929.218 305.5 927.863 305.5 926.5C305.5 920.425 300.918 916.5 296.5 916.5C292.082 916.5 286.5 920.425 286.5 926.5C286.5 927.863 286.5 929.218 286.613 930.5H277.515C277.549 929.218 277.5 927.863 277.5 926.5C277.5 920.425 272.918 916.5 268.5 916.5C264.082 916.5 258.5 920.425 258.5 926.5C258.5 927.863 258.5 929.218 258.613 930.5H249.515C249.549 929.218 249.5 927.863 249.5 926.5C249.5 920.425 244.918 916.5 240.5 916.5C236.082 916.5 230.5 920.425 230.5 926.5C230.5 927.863 230.5 929.218 230.613 930.5H223.515C223.549 929.218 223.5 927.863 223.5 926.5C223.5 920.425 218.918 916.5 214.5 916.5C210.082 916.5 204.5 920.425 204.5 926.5C204.5 927.863 204.5 929.218 204.613 930.5H197.515C197.549 929.218 197.5 927.863 197.5 926.5C197.5 920.425 192.918 916.5 188.5 916.5C184.082 916.5 178.5 920.425 178.5 926.5C178.5 927.863 178.5 929.218 178.613 930.5H169.515C169.549 929.218 169.5 927.863 169.5 926.5C169.5 920.425 164.918 916.5 160.5 916.5C156.082 916.5 150.5 920.425 150.5 926.5C150.5 927.863 150.5 929.218 150.613 930.5H143.515C143.549 929.218 143.5 927.863 143.5 926.5C143.5 920.425 138.918 916.5 134.5 916.5C130.082 916.5 124.5 920.425 124.5 926.5C124.5 927.863 124.5 929.218 124.613 930.5H115.515C115.549 929.218 115.5 927.863 115.5 926.5C115.5 920.425 110.918 916.5 106.5 916.5C102.082 916.5 96.5 920.425 96.5 926.5C96.5 927.863 96.5004 929.218 96.6133 930.5H89.5146C89.5494 929.218 89.5 927.863 89.5 926.5C89.5 920.425 84.9183 916.5 80.5 916.5C76.0817 916.5 70.5 920.425 70.5 926.5C70.5 927.863 70.5004 929.218 70.6133 930.5H61.5146C61.5494 929.218 61.5 927.863 61.5 926.5C61.5 920.425 56.9183 916.5 52.5 916.5C48.0817 916.5 42.5 920.425 42.5 926.5C42.5 927.863 42.5004 929.218 42.6133 930.5H33.5146C33.5494 929.218 33.5 927.863 33.5 926.5C33.5 920.425 28.9183 916.5 24.5 916.5C20.0817 916.5 14.5 920.425 14.5 926.5C14.5 927.863 14.5004 929.218 14.6133 930.5H0.5V0.5H16.71Z" fill="#F1F2F1"/>
</svg>
