<svg width="25" height="25" viewBox="0 0 25 25" fill="none" xmlns="http://www.w3.org/2000/svg">
<path d="M12.4803 9.39966V13.3997M12.4803 17.3997H12.4903M22.2103 18.3996L14.2103 4.39964C14.0358 4.09184 13.7829 3.83583 13.4772 3.65771C13.1715 3.47959 12.8241 3.38574 12.4703 3.38574C12.1165 3.38574 11.769 3.47959 11.4634 3.65771C11.1577 3.83583 10.9047 4.09184 10.7303 4.39964L2.73028 18.3996C2.55396 18.705 2.4615 19.0515 2.46229 19.4041C2.46307 19.7568 2.55705 20.1029 2.73472 20.4075C2.91239 20.712 3.16742 20.9642 3.47397 21.1385C3.78052 21.3127 4.12768 21.4028 4.48028 21.3996H20.4803C20.8312 21.3993 21.1758 21.3066 21.4796 21.1309C21.7833 20.9552 22.0355 20.7027 22.2108 20.3988C22.3861 20.0948 22.4783 19.75 22.4782 19.3991C22.4781 19.0482 22.3857 18.7035 22.2103 18.3996Z" stroke="#FFD230" stroke-width="2" stroke-linecap="round" stroke-linejoin="round"/>
</svg>
