<svg width="26" height="23" viewBox="0 0 26 23" fill="none" xmlns="http://www.w3.org/2000/svg">
<path d="M25.0728 11.997V9.46491C25.0728 8.1821 24.0316 7.13841 22.7517 7.13841H22.0544C21.8812 6.70073 21.6772 6.27494 21.4412 5.86599C21.0189 5.13243 20.4996 4.45444 19.8979 3.85093C18.0659 2.01251 15.629 1 13.0364 1C11.3028 1 9.60126 1.46429 8.11571 2.34262C6.67421 3.1949 5.46949 4.41316 4.63184 5.86552C4.39562 6.27471 4.19157 6.70064 4.01836 7.13846H3.32105C2.04119 7.13846 1 8.1821 1 9.46491V11.997C1 13.2798 2.04119 14.3236 3.32105 14.3236H3.33322V17.8135H1.5233C1.23429 17.8135 1 18.0477 1 18.3368V21.4767C1 21.7657 1.23429 22 1.5233 22H3.6166C3.90561 22 4.1399 21.7657 4.1399 21.4767C4.1399 21.1877 3.90561 20.9534 3.6166 20.9534H2.04665V18.8601H3.85657H22.2162H24.0262V20.9534H6.75654C6.46752 20.9534 6.23324 21.1877 6.23324 21.4767C6.23324 21.7657 6.46752 22 6.75654 22H24.5495C24.8385 22 25.0728 21.7657 25.0728 21.4767V18.3368C25.0728 18.0477 24.8385 17.8135 24.5495 17.8135H22.7395V14.3235H22.7517C24.0316 14.3235 25.0728 13.2799 25.0728 11.997ZM3.33322 10.731V13.2769H3.32105C2.61833 13.2769 2.04665 12.7027 2.04665 11.997V9.46486C2.04665 8.75918 2.61833 8.18501 3.32105 8.18501H3.66954C3.44611 9.01204 3.33322 9.8655 3.33322 10.731ZM21.693 13.8002V17.8134H4.37987V13.8002V10.731C4.37987 10.6448 4.38156 10.5586 4.3841 10.4725C4.38462 10.4555 4.38509 10.4384 4.3857 10.4213C4.39214 10.2397 4.4039 10.0586 4.42162 9.87833C4.42176 9.87678 4.42195 9.87514 4.42209 9.87358C4.48679 9.21723 4.62558 8.57168 4.83457 7.94997C4.83801 7.93972 4.84153 7.92947 4.84506 7.91927C5.02565 7.38873 5.25735 6.87573 5.53847 6.38872C7.08307 3.71044 9.95615 2.04669 13.0364 2.04669C15.3488 2.04669 17.5224 2.94985 19.1567 4.58994C19.694 5.12885 20.1574 5.73387 20.5345 6.38887C20.8155 6.87554 21.047 7.38826 21.2276 7.91852C21.2312 7.92919 21.2349 7.93987 21.2385 7.95054C21.4474 8.57206 21.5862 9.21741 21.6508 9.87358C21.6509 9.87514 21.6511 9.87678 21.6513 9.87833C21.669 10.0586 21.6808 10.2397 21.6872 10.4213C21.6878 10.4384 21.6883 10.4555 21.6888 10.4725C21.6914 10.5586 21.693 10.6448 21.693 10.731V13.8002H21.693ZM22.7395 13.2769V10.731C22.7395 9.86554 22.6266 9.01204 22.4033 8.18511H22.7518C23.4545 8.18511 24.0262 8.75923 24.0262 9.46496V11.9971C24.0262 12.7027 23.4545 13.277 22.7518 13.277H22.7395V13.2769Z" fill="#907AD6" stroke="#907AD6" stroke-width="0.409237"/>
<path d="M17.7726 6.52385C16.598 6.10417 14.8229 5.604 13.0363 5.604C11.2497 5.604 9.47447 6.10417 8.29994 6.52385C7.1594 6.9313 6.39307 8.02049 6.39307 9.2341V12.9814C6.39307 14.5678 7.68049 15.8583 9.26285 15.8583H9.89631C10.1853 15.8583 10.4196 15.624 10.4196 15.335C10.4196 15.046 10.1853 14.8117 9.89631 14.8117H9.26285C8.25753 14.8117 7.43971 13.9906 7.43971 12.9814V9.2341C7.43971 8.46156 7.92691 7.76848 8.6521 7.50942C9.74877 7.11767 11.3996 6.6506 13.0363 6.6506C14.6731 6.6506 16.3239 7.11763 17.4205 7.50942C18.1456 7.76848 18.6329 8.46156 18.6329 9.23405V12.9814C18.6329 13.9906 17.815 14.8116 16.8098 14.8116H13.0363C12.7472 14.8116 12.513 15.0459 12.513 15.3349C12.513 15.624 12.7472 15.8582 13.0363 15.8582H16.8097C18.3921 15.8582 19.6794 14.5677 19.6794 12.9814V9.23405C19.6794 8.0204 18.9132 6.93125 17.7726 6.52385Z" fill="#907AD6" stroke="#907AD6" stroke-width="0.409237"/>
<path d="M5.55665 21.1065C5.43526 20.9852 5.25471 20.9292 5.0846 20.9637C5.05113 20.9705 5.01812 20.9804 4.98676 20.9935C4.95484 21.0065 4.92446 21.0228 4.89621 21.0416C4.86743 21.0605 4.84073 21.0824 4.81665 21.1065C4.79258 21.1306 4.77062 21.1573 4.75177 21.1861C4.73292 21.2143 4.71669 21.2447 4.70362 21.2766C4.69055 21.308 4.68007 21.341 4.67381 21.3745C4.667 21.4079 4.66333 21.4425 4.66333 21.4765C4.66333 21.5105 4.667 21.545 4.67381 21.5791C4.68012 21.612 4.69055 21.645 4.70362 21.6769C4.71669 21.7083 4.73292 21.7386 4.75177 21.7669C4.77062 21.7957 4.79258 21.8224 4.81665 21.8465C4.84073 21.8705 4.86743 21.8925 4.89621 21.9119C4.92446 21.9307 4.95484 21.9469 4.98676 21.96C5.01817 21.9731 5.05113 21.983 5.0846 21.9898C5.11808 21.9966 5.15264 21.9997 5.18663 21.9997C5.22062 21.9997 5.25518 21.9966 5.28866 21.9898C5.32213 21.983 5.35514 21.9731 5.38706 21.96C5.41847 21.9469 5.4488 21.9307 5.47705 21.9119C5.50583 21.8925 5.53254 21.8705 5.55661 21.8465C5.58068 21.8224 5.60264 21.7957 5.62149 21.7669C5.64035 21.7386 5.65657 21.7083 5.66964 21.6769C5.68271 21.645 5.69319 21.612 5.69945 21.5791C5.70626 21.545 5.70993 21.5105 5.70993 21.4765C5.70998 21.3389 5.65398 21.2039 5.55665 21.1065Z" fill="#907AD6" stroke="#907AD6" stroke-width="0.409237"/>
</svg>
