<svg width="48" height="35" viewBox="0 0 48 35" fill="none" xmlns="http://www.w3.org/2000/svg">
<path d="M41.3164 16.7414C41.9283 16.2035 42.4988 15.6702 43.0246 15.1438C44.6581 13.5088 45.934 11.8702 46.6475 10.324C47.3495 8.80242 47.6409 7.04234 46.6739 5.5266C45.7644 4.10066 44.106 3.48373 42.437 3.2639C40.7232 3.03818 38.6451 3.17739 36.3769 3.58828L34.4522 3.93734C31.5463 1.77987 27.9256 0.5 24 0.5C14.4271 0.5 6.66666 8.11115 6.66666 17.5C6.66666 17.6842 6.66965 17.8676 6.67557 18.0504L5.5332 19.3109C3.71445 21.0473 2.2892 22.7859 1.47667 24.4171C0.68361 26.0091 0.30583 27.8742 1.3259 29.4733C2.26354 30.9432 3.99584 31.5547 5.72947 31.7566C7.51593 31.9649 9.68836 31.7904 12.062 31.3293C12.5285 31.2385 13.006 31.1361 13.4936 31.0222C12.4455 30.2377 11.4912 29.3386 10.6503 28.3439C8.80352 28.6537 7.27155 28.7264 6.11289 28.5914C4.74201 28.4316 4.23887 28.03 4.08107 27.7827C3.94572 27.5706 3.79611 27.0221 4.39678 25.8164C4.91901 24.7681 5.88749 23.4967 7.30312 22.0804C7.96552 24.4079 9.12026 26.534 10.6503 28.3439C10.9044 28.3014 11.1644 28.2542 11.4303 28.2026C15.8092 27.3515 21.4256 25.3306 27.2028 22.3118C32.9782 19.2941 37.7078 15.9094 40.6968 12.9194C40.0344 10.5919 38.8796 8.46586 37.3497 6.65602C39.2661 6.33457 40.8378 6.26937 42.0043 6.42303C43.2924 6.59269 43.7667 6.97874 43.9188 7.21723C44.0473 7.4187 44.1905 7.91731 43.6865 9.00992C43.1938 10.0779 42.2058 11.4089 40.7033 12.913L40.6968 12.9194C41.0452 14.1433 41.2573 15.4228 41.3164 16.7414Z" fill="#1C145B"/>
<path d="M24 34.5001C33.573 34.5001 41.3333 26.889 41.3333 17.5001C41.3333 17.2459 41.3277 16.9931 41.3164 16.7415C38.1065 19.5622 33.7554 22.4998 28.7309 25.1252C23.3325 27.9462 17.9865 29.9728 13.4937 31.0223C16.4086 33.2043 20.05 34.5001 24 34.5001Z" fill="#1C145B"/>
</svg>
